<mxfile host="app.diagrams.net" modified="2024-06-25T19:41:07.518Z" agent="Mozilla/5.0 (Macintosh; Intel Mac OS X 10_15_7) AppleWebKit/537.36 (KHTML, like Gecko) Chrome/126.0.0.0 Safari/537.36" version="24.6.3" etag="_zxyp4fFuiiV4DkqDDxc" type="github">
  <diagram name="Page-1" id="SeVY0bwzyb6kFHYJY12_">
    <mxGraphModel>
      <root>
        <mxCell id="0" />
        <mxCell id="1" parent="0" />
      </root>
    </mxGraphModel>
  </diagram>
</mxfile>
